<svg width="48" height="48" viewBox="0 0 48 48" fill="none" xmlns="http://www.w3.org/2000/svg">
<path d="M26.7542 7.08191L0 33.8361L14.1639 48L40.918 21.2458L38.5573 9.44261L26.7542 7.08191Z" fill="#F9BA48"/>
<path d="M12.6842 35.3178C12.6614 34.6962 12.4087 34.1155 11.9665 33.6733C11.0089 32.7157 9.4508 32.7157 8.4932 33.6733L5.96973 36.1968L11.8037 42.0308L14.3272 39.5071C14.7915 39.0436 15.0472 38.4267 15.0472 37.7704C15.0472 37.1142 14.7914 36.4972 14.3272 36.0337C13.8725 35.5791 13.2814 35.3398 12.6842 35.3178ZM13.2146 38.3945L11.8037 39.8054L8.19509 36.1968L9.60596 34.7859C9.95067 34.4428 10.5094 34.4428 10.8539 34.7859C11.0208 34.9528 11.1128 35.1739 11.1128 35.4098C11.1128 35.646 11.0208 35.8671 10.8539 36.0338L9.67355 37.2142L10.7862 38.3268L11.9665 37.1464C12.3112 36.8034 12.8699 36.8034 13.2144 37.1464C13.3813 37.3133 13.4734 37.5344 13.4734 37.7704C13.4734 38.0065 13.3813 38.2276 13.2146 38.3945Z" fill="#333333"/>
<path d="M26.1978 15.9682L24.8545 17.3115L30.6885 23.1455L32.0318 21.8022C32.8108 21.0232 33.2404 19.9868 33.2404 18.8853C33.2404 17.7838 32.8108 16.7473 32.0318 15.9684C30.4226 14.3599 27.8069 14.3599 26.1978 15.9682ZM30.9192 20.6896L30.6887 20.9201L27.08 17.3115L27.3105 17.081C28.3052 16.0863 29.9246 16.0863 30.9192 17.081C31.4007 17.5633 31.6668 18.2038 31.6668 18.8853C31.6666 19.5668 31.4007 20.2073 30.9192 20.6896Z" fill="#333333"/>
<path d="M17.637 36.1968L12.9158 31.4756L14.3267 30.0647C14.6714 29.7217 15.2301 29.7217 15.5746 30.0647C15.7415 30.2316 15.8335 30.4527 15.8335 30.6887C15.8335 30.9248 15.7415 31.1459 15.5746 31.3126L14.3943 32.493L15.5069 33.6056L16.6462 32.4662L19.597 34.2367L20.7443 33.0894L17.3702 31.0648C17.389 30.9405 17.4072 30.8161 17.4072 30.6878C17.4072 30.0317 17.1514 29.4146 16.6872 28.9511C15.7296 27.9935 14.1715 27.9935 13.2139 28.9511L10.6904 31.4754L16.5244 37.3094L17.637 36.1968Z" fill="#333333"/>
<path d="M22.3589 31.4753L19.9982 29.1146L22.033 27.0798L24.3937 29.4405L25.5063 28.3279L19.6723 22.4939L15.4121 26.7541L21.2461 32.5881L22.3589 31.4753ZM17.6375 26.7541L19.6723 24.7193L20.9203 25.9672L18.8854 28.002L17.6375 26.7541Z" fill="#333333"/>
<path d="M30.227 23.6066L24.393 17.7726L23.2804 18.8853L26.7198 22.3256L20.9875 21.1783L20.1328 22.0328L25.9668 27.8668L27.0794 26.7542L23.6392 23.3139L29.3724 24.4612L30.227 23.6066Z" fill="#333333"/>
<path d="M39.7381 0C35.3149 0 31.7031 3.49611 31.4954 7.86885H33.0692C33.2746 4.36398 36.1821 1.5738 39.7381 1.5738C43.4262 1.5738 46.4265 4.57417 46.4265 8.2623C46.4265 11.9504 43.4262 14.9508 39.7381 14.9508C38.9708 14.9508 38.232 14.8075 37.534 14.5653C37.685 14.1978 37.7708 13.798 37.7708 13.3772C37.7708 11.6413 36.3591 10.2296 34.6232 10.2296C32.8873 10.2296 31.4756 11.6413 31.4756 13.3772C31.4756 15.1131 32.8874 16.5246 34.6234 16.5246C35.3394 16.5246 35.9926 16.2751 36.522 15.8707C37.5206 16.2918 38.6081 16.5246 39.7381 16.5246C44.294 16.5246 48.0004 12.8183 48.0004 8.2623C48.0004 3.7063 44.2942 0 39.7381 0ZM36.1972 13.377C36.1972 13.5525 36.1618 13.7177 36.1091 13.875C35.3261 13.3682 34.6533 12.6955 34.1324 11.889C34.2874 11.8377 34.4503 11.8032 34.6234 11.8032C35.4912 11.8034 36.1972 12.5091 36.1972 13.377ZM34.6234 14.9508C33.7555 14.9508 33.0496 14.245 33.0496 13.377C33.0496 13.2935 33.0613 13.2141 33.074 13.1346C33.5815 13.8309 34.1922 14.4275 34.8735 14.9255C34.7917 14.9391 34.7091 14.9508 34.6234 14.9508Z" fill="#333333"/>
</svg>
