<svg width="48" height="48" viewBox="0 0 48 48" fill="none" xmlns="http://www.w3.org/2000/svg">
<path d="M44.7996 25.6001C44.3572 25.6001 43.9996 25.2417 43.9996 24.8001C43.9996 24.2881 43.9804 23.7713 43.942 23.2625C43.9084 22.8217 44.2388 22.4377 44.6796 22.4049C45.1188 22.3761 45.5036 22.7017 45.5372 23.1425C45.5788 23.6905 45.5996 24.2481 45.5996 24.8001C45.5996 25.2417 45.242 25.6001 44.7996 25.6001ZM3.22683 24.5353C3.21323 24.5353 3.19883 24.5353 3.18523 24.5345C2.74363 24.5121 2.40443 24.1361 2.42683 23.6953C2.45483 23.1425 2.50443 22.5865 2.57323 22.0425C2.62923 21.6033 3.03723 21.2961 3.46763 21.3497C3.90603 21.4057 4.21643 21.8057 4.16043 22.2441C4.09563 22.7481 4.05003 23.2641 4.02443 23.7769C4.00363 24.2033 3.65003 24.5353 3.22683 24.5353ZM44.2516 20.8441C43.8884 20.8441 43.5596 20.5953 43.4732 20.2265C43.3564 19.7265 43.2196 19.2281 43.0652 18.7449C42.9316 18.3241 43.1644 17.8737 43.5852 17.7401C44.0044 17.6065 44.4556 17.8393 44.59 18.2601C44.7564 18.7833 44.9052 19.3225 45.0308 19.8625C45.1316 20.2929 44.8644 20.7233 44.434 20.8233C44.374 20.8369 44.3124 20.8441 44.2516 20.8441ZM4.01563 19.8137C3.94203 19.8137 3.86683 19.8033 3.79323 19.7817C3.36843 19.6593 3.12443 19.2153 3.24683 18.7913C3.40043 18.2593 3.57643 17.7289 3.77003 17.2145C3.92523 16.8001 4.38843 16.5913 4.79963 16.7465C5.21323 16.9017 5.42283 17.3633 5.26683 17.7769C5.08763 18.2529 4.92523 18.7441 4.78283 19.2361C4.68283 19.5857 4.36283 19.8137 4.01563 19.8137ZM42.6284 16.3385C42.3348 16.3385 42.0508 16.1761 41.9116 15.8953C41.6836 15.4361 41.4348 14.9825 41.1732 14.5473C40.946 14.1689 41.0684 13.6777 41.4476 13.4497C41.8276 13.2225 42.318 13.3457 42.5452 13.7241C42.8284 14.1953 43.0964 14.6857 43.3444 15.1825C43.5412 15.5785 43.3804 16.0585 42.9844 16.2553C42.87 16.3113 42.7484 16.3385 42.6284 16.3385ZM5.86843 15.4001C5.73483 15.4001 5.60043 15.3665 5.47643 15.2969C5.09163 15.0801 4.95563 14.5921 5.17243 14.2073C5.44363 13.7265 5.73643 13.2513 6.04363 12.7929C6.29003 12.4265 6.78603 12.3273 7.15403 12.5745C7.52043 12.8209 7.61883 13.3177 7.37243 13.6849C7.08843 14.1081 6.81723 14.5489 6.56603 14.9937C6.41883 15.2537 6.14763 15.4001 5.86843 15.4001ZM40.0132 12.3265C39.7828 12.3265 39.5548 12.2281 39.3964 12.0377C39.07 11.6441 38.7244 11.2585 38.37 10.8929C38.062 10.5761 38.07 10.0697 38.3868 9.76174C38.7036 9.45374 39.21 9.46094 39.518 9.77934C39.9012 10.1745 40.274 10.5905 40.6276 11.0153C40.91 11.3553 40.8628 11.8601 40.5228 12.1417C40.374 12.2665 40.1924 12.3265 40.0132 12.3265ZM8.68443 11.5289C8.49083 11.5289 8.29723 11.4593 8.14363 11.3177C7.81803 11.0185 7.79723 10.5121 8.09563 10.1873C8.46923 9.78094 8.86283 9.38494 9.26603 9.00814C9.58843 8.70734 10.0948 8.72494 10.3972 9.04734C10.698 9.37054 10.6804 9.87694 10.358 10.1785C9.98523 10.5265 9.62043 10.8937 9.27483 11.2697C9.11643 11.4417 8.90043 11.5289 8.68443 11.5289ZM36.55 9.01694C36.382 9.01694 36.2124 8.96414 36.0676 8.85454C35.662 8.54734 35.2372 8.25054 34.806 7.97294C34.4348 7.73374 34.3276 7.23854 34.5668 6.86734C34.806 6.49534 35.302 6.38814 35.6724 6.62814C36.1372 6.92814 36.5948 7.24734 37.0332 7.57934C37.3852 7.84574 37.4548 8.34734 37.1884 8.70014C37.0316 8.90734 36.7924 9.01694 36.55 9.01694ZM12.31 8.39854C12.054 8.39854 11.8028 8.27614 11.6476 8.04814C11.3988 7.68254 11.494 7.18494 11.8588 6.93694C12.3164 6.62574 12.79 6.32894 13.2676 6.05534C13.6516 5.83534 14.1404 5.96814 14.3596 6.35214C14.5788 6.73534 14.446 7.22414 14.0628 7.44414C13.6212 7.69694 13.182 7.97134 12.7588 8.26014C12.622 8.35294 12.4652 8.39854 12.31 8.39854ZM25.3332 7.20014H23.7332C23.2916 7.20014 22.9332 6.84174 22.9332 6.40014C22.9332 5.95854 23.2916 5.60014 23.7332 5.60014H25.3332C25.7748 5.60014 26.1332 5.95854 26.1332 6.40014C26.1332 6.84174 25.7748 7.20014 25.3332 7.20014ZM32.4284 6.58414C32.3204 6.58414 32.21 6.56174 32.1044 6.51534C31.6396 6.30974 31.1588 6.11774 30.6764 5.94654C30.2596 5.79854 30.0428 5.34174 30.19 4.92494C30.338 4.50894 30.7964 4.29214 31.2116 4.43854C31.7324 4.62334 32.2516 4.82974 32.7532 5.05294C33.1572 5.23214 33.3396 5.70414 33.1604 6.10814C33.0276 6.40654 32.7348 6.58414 32.4284 6.58414ZM16.5532 6.17854C16.2316 6.17854 15.9284 5.98254 15.806 5.66414C15.6476 5.25134 15.854 4.78894 16.2668 4.63054C16.7828 4.43214 17.3124 4.25294 17.8412 4.09614C18.2628 3.96974 18.7092 4.21214 18.8356 4.63534C18.9612 5.05854 18.7196 5.50414 18.2964 5.62974C17.8076 5.77534 17.318 5.94094 16.8404 6.12414C16.746 6.16094 16.6492 6.17854 16.5532 6.17854ZM21.5996 6.13374C21.158 6.13374 20.7996 5.77534 20.7996 5.33374V4.88894C20.59 4.77054 20.4356 4.55774 20.4012 4.30094C20.3412 3.86334 20.6484 3.46014 21.086 3.40094C21.2268 3.38174 21.3676 3.36414 21.5076 3.34814L22.3996 3.24494V5.33374C22.3996 5.77534 22.0412 6.13374 21.5996 6.13374ZM27.8588 5.16334C27.81 5.16334 27.7604 5.15934 27.71 5.14974C27.3892 5.08894 27.0652 5.03694 26.7388 4.99214C26.6356 5.04014 26.5204 5.06654 26.3996 5.06654C25.958 5.06654 25.5996 4.70814 25.5996 4.26654V3.24414L26.4916 3.34734C27.002 3.40654 27.5108 3.48334 28.0052 3.57614C28.4396 3.65774 28.7252 4.07614 28.6436 4.50974C28.5716 4.89534 28.2356 5.16334 27.8588 5.16334Z" fill="#7383BF"/>
<path d="M21.5998 4.79995H5.5998C5.1582 4.79995 4.7998 4.44155 4.7998 3.99995C4.7998 3.55835 5.1582 3.19995 5.5998 3.19995H21.5998C22.0414 3.19995 22.3998 3.55835 22.3998 3.99995C22.3998 4.44155 22.0414 4.79995 21.5998 4.79995Z" fill="#7383BF"/>
<path d="M42.3996 4.8002H26.3996C25.958 4.8002 25.5996 4.4418 25.5996 4.0002C25.5996 3.5586 25.958 3.2002 26.3996 3.2002H42.3996C42.842 3.2002 43.1996 3.5586 43.1996 4.0002C43.1996 4.4418 42.842 4.8002 42.3996 4.8002Z" fill="#7383BF"/>
<path d="M29.6004 39.2001H18.4004V35.8049C18.4004 32.8201 15.9804 30.4001 12.9956 30.4001H10.4004L24.0004 9.6001L37.6004 30.4001H35.0052C32.0204 30.4001 29.6004 32.8201 29.6004 35.8049V39.2001Z" fill="#EFCE4A"/>
<path d="M29.6004 39.2001H18.4004V43.2001H29.6004V39.2001Z" fill="#7383BF"/>
<path d="M28 43.2001H20V47.2001H28V43.2001Z" fill="#434C6D"/>
<path d="M5.5998 24.8H0.799805V29.6H5.5998V24.8Z" fill="#434C6D"/>
<path d="M6.4 30.4H0V24H6.4V30.4ZM1.6 28.8H4.8V25.6H1.6V28.8Z" fill="#434C6D"/>
<path d="M47.1994 24.8H42.3994V29.6H47.1994V24.8Z" fill="#434C6D"/>
<path d="M47.9996 30.4H41.5996V24H47.9996V30.4ZM43.1996 28.8H46.3996V25.6H43.1996V28.8Z" fill="#434C6D"/>
<path d="M26.3996 1.6001H21.5996V6.4001H26.3996V1.6001Z" fill="#434C6D"/>
<path d="M27.1998 7.20005H20.7998V0.800049H27.1998V7.20005ZM22.3998 5.60005H25.5998V2.40005H22.3998V5.60005Z" fill="#434C6D"/>
<path d="M3.1998 6.4001C4.52529 6.4001 5.5998 5.32558 5.5998 4.0001C5.5998 2.67461 4.52529 1.6001 3.1998 1.6001C1.87432 1.6001 0.799805 2.67461 0.799805 4.0001C0.799805 5.32558 1.87432 6.4001 3.1998 6.4001Z" fill="#26B99A"/>
<path d="M3.2 7.20005C1.4352 7.20005 0 5.76485 0 4.00005C0 2.23525 1.4352 0.800049 3.2 0.800049C4.9648 0.800049 6.4 2.23525 6.4 4.00005C6.4 5.76485 4.9648 7.20005 3.2 7.20005ZM3.2 2.40005C2.3176 2.40005 1.6 3.11765 1.6 4.00005C1.6 4.88245 2.3176 5.60005 3.2 5.60005C4.0824 5.60005 4.8 4.88245 4.8 4.00005C4.8 3.11765 4.0824 2.40005 3.2 2.40005Z" fill="#26B99A"/>
<path d="M44.7994 6.4001C46.1249 6.4001 47.1994 5.32558 47.1994 4.0001C47.1994 2.67461 46.1249 1.6001 44.7994 1.6001C43.4739 1.6001 42.3994 2.67461 42.3994 4.0001C42.3994 5.32558 43.4739 6.4001 44.7994 6.4001Z" fill="#26B99A"/>
<path d="M44.7996 7.20005C43.0348 7.20005 41.5996 5.76485 41.5996 4.00005C41.5996 2.23525 43.0348 0.800049 44.7996 0.800049C46.5644 0.800049 47.9996 2.23525 47.9996 4.00005C47.9996 5.76485 46.5644 7.20005 44.7996 7.20005ZM44.7996 2.40005C43.9172 2.40005 43.1996 3.11765 43.1996 4.00005C43.1996 4.88245 43.9172 5.60005 44.7996 5.60005C45.682 5.60005 46.3996 4.88245 46.3996 4.00005C46.3996 3.11765 45.682 2.40005 44.7996 2.40005Z" fill="#26B99A"/>
<path d="M24.7998 26.5136V9.60005C24.7998 9.15845 24.4414 8.80005 23.9998 8.80005C23.5582 8.80005 23.1998 9.15845 23.1998 9.60005V26.5136C21.8238 26.8712 20.7998 28.1136 20.7998 29.6C20.7998 31.3648 22.235 32.8 23.9998 32.8C25.7646 32.8 27.1998 31.3648 27.1998 29.6C27.1998 28.1136 26.1758 26.8712 24.7998 26.5136ZM23.9998 31.2C23.1174 31.2 22.3998 30.4824 22.3998 29.6C22.3998 28.7176 23.1174 28 23.9998 28C24.8822 28 25.5998 28.7176 25.5998 29.6C25.5998 30.4824 24.8822 31.2 23.9998 31.2Z" fill="#F7E6A1"/>
</svg>
