<svg width="80" height="80" viewBox="0 0 80 80" fill="none" xmlns="http://www.w3.org/2000/svg">
<path d="M53.3333 53.3333C60.6971 53.3333 66.6667 47.3638 66.6667 40C66.6667 32.6362 60.6971 26.6666 53.3333 26.6666C45.9695 26.6666 40 32.6362 40 40C40 47.3638 45.9695 53.3333 53.3333 53.3333Z" fill="#19BCFE"/>
<path fill-rule="evenodd" clip-rule="evenodd" d="M26.6663 80C34.0301 80 39.9997 74.0305 39.9997 66.6667C39.9997 64.6565 39.9997 60.2121 39.9997 53.3334C34.0098 53.3334 29.5654 53.3334 26.6663 53.3334C19.3025 53.3334 13.333 59.3029 13.333 66.6667C13.333 74.0305 19.3025 80 26.6663 80Z" fill="#09CF83"/>
<path fill-rule="evenodd" clip-rule="evenodd" d="M26.6663 53.3333C29.1209 53.3333 33.5654 53.3333 39.9997 53.3333V26.6666C33.5654 26.6666 29.1209 26.6666 26.6663 26.6666C19.3025 26.6666 13.333 32.6362 13.333 40C13.333 47.3638 19.3025 53.3333 26.6663 53.3333Z" fill="#A259FF"/>
<path fill-rule="evenodd" clip-rule="evenodd" d="M26.6663 26.6667C29.1209 26.6667 33.5654 26.6667 39.9997 26.6667V0C33.5654 0 29.1209 0 26.6663 0C19.3025 0 13.333 5.96954 13.333 13.3333C13.333 20.6971 19.3025 26.6667 26.6663 26.6667Z" fill="#F24E1E"/>
<path fill-rule="evenodd" clip-rule="evenodd" d="M53.3333 26.6667H40V0H53.3333C60.6971 0 66.6667 5.96954 66.6667 13.3333C66.6667 20.6971 60.6971 26.6667 53.3333 26.6667Z" fill="#FF7262"/>
</svg>
