<svg width="80" height="80" viewBox="0 0 80 80" fill="none" xmlns="http://www.w3.org/2000/svg">
<path d="M0 0H80V80H0V0Z" fill="#F7DF1E"/>
<path d="M21.0345 66.8538L27.1564 63.1488C28.3376 65.2429 29.412 67.0147 31.9892 67.0147C34.4595 67.0147 36.0173 66.0485 36.0173 62.2897V36.7279H43.5351V62.396C43.5351 70.1825 38.9707 73.7269 32.3114 73.7269C26.2973 73.7269 22.8064 70.6122 21.0342 66.8532L21.0345 66.8538ZM47.6186 66.0482L53.7398 62.5041C55.3514 65.1357 57.4457 67.0688 61.1507 67.0688C64.2661 67.0688 66.2523 65.5113 66.2523 63.3632C66.2523 60.7857 64.2117 59.8725 60.7748 58.3694L58.8957 57.5632C53.4717 55.2547 49.8739 52.3547 49.8739 46.2329C49.8739 40.5941 54.1698 36.2979 60.8826 36.2979C65.662 36.2979 69.0989 37.9628 71.5689 42.3125L65.7151 46.0719C64.4261 43.7628 63.0304 42.85 60.8823 42.85C58.6804 42.85 57.2842 44.2463 57.2842 46.0719C57.2842 48.3272 58.6804 49.2407 61.9023 50.6369L63.7817 51.4422C70.1723 54.1813 73.7701 56.9735 73.7701 63.256C73.7701 70.0229 68.4539 73.7279 61.3117 73.7279C54.3307 73.7279 49.8198 70.3985 47.6182 66.0485" fill="black"/>
</svg>
