<svg width="27" height="48" viewBox="0 0 27 48" fill="none" xmlns="http://www.w3.org/2000/svg">
<path d="M24 48H3C1.35 48 0 46.65 0 45V3C0 1.35 1.35 0 3 0H24C25.65 0 27 1.35 27 3V45C27 46.65 25.65 48 24 48Z" fill="#333333"/>
<path d="M24.8192 4.75061H2.19922V39.6256H24.8192V4.75061Z" fill="#0BA4E0"/>
<path d="M13.5156 45.8849C12.3441 45.8849 11.3916 44.9324 11.3916 43.7609C11.3916 42.5894 12.3441 41.6354 13.5156 41.6354C14.6871 41.6354 15.6411 42.5894 15.6411 43.7609C15.6411 44.9324 14.6871 45.8849 13.5156 45.8849ZM13.5156 42.3854C12.7581 42.3854 12.1416 43.0019 12.1416 43.7609C12.1416 44.5184 12.7581 45.1349 13.5156 45.1349C14.2746 45.1349 14.8911 44.5184 14.8911 43.7609C14.8911 43.0019 14.2746 42.3854 13.5156 42.3854Z" fill="#D6D6D6"/>
<path d="M13.5147 3.1048C13.9181 3.1048 14.2452 2.77774 14.2452 2.3743C14.2452 1.97085 13.9181 1.6438 13.5147 1.6438C13.1112 1.6438 12.7842 1.97085 12.7842 2.3743C12.7842 2.77774 13.1112 3.1048 13.5147 3.1048Z" fill="#D6D6D6"/>
<path d="M18.8252 3.1048C19.2287 3.1048 19.5557 2.77774 19.5557 2.3743C19.5557 1.97085 19.2287 1.6438 18.8252 1.6438C18.4218 1.6438 18.0947 1.97085 18.0947 2.3743C18.0947 2.77774 18.4218 3.1048 18.8252 3.1048Z" fill="#D6D6D6"/>
<path d="M21.1338 3.1048C21.5373 3.1048 21.8643 2.77774 21.8643 2.3743C21.8643 1.97085 21.5373 1.6438 21.1338 1.6438C20.7304 1.6438 20.4033 1.97085 20.4033 2.3743C20.4033 2.77774 20.7304 3.1048 21.1338 3.1048Z" fill="#D6D6D6"/>
<path d="M10.0157 26.7195H5.42871V28.2195H10.0157V26.7195Z" fill="white"/>
<path d="M13.8677 23.199H5.42871V24.699H13.8677V23.199Z" fill="white"/>
<path d="M17.7197 19.6801H5.42871V21.1801H17.7197V19.6801Z" fill="white"/>
<path d="M21.5717 16.1565H5.42871V17.6565H21.5717V16.1565Z" fill="white"/>
</svg>
