<svg width="90" height="80" viewBox="0 0 90 80" fill="none" xmlns="http://www.w3.org/2000/svg">
<path d="M73.9293 25.9295C72.9965 25.6084 72.03 25.3047 71.0348 25.0174C71.1983 24.3498 71.3485 23.6909 71.4819 23.0432C73.673 12.4074 72.2404 3.83909 67.3485 1.01805C62.6578 -1.68695 54.9864 1.13345 47.2387 7.87603C46.4937 8.52439 45.7466 9.21085 44.9998 9.93027C44.5022 9.45428 44.0054 8.9943 43.5099 8.55432C35.3901 1.34472 27.2512 -1.69351 22.3641 1.13569C17.6778 3.84854 16.29 11.9035 18.2623 21.9831C18.4528 22.9567 18.6754 23.951 18.9272 24.9618C17.7753 25.2888 16.6633 25.6374 15.5993 26.0082C6.07965 29.3272 0 34.5288 0 39.9243C0 45.4967 6.52651 51.086 16.4419 54.475C17.2244 54.7425 18.0363 54.9954 18.8731 55.2354C18.6015 56.3287 18.3652 57.4001 18.1669 58.4451C16.2864 68.3498 17.755 76.2144 22.4287 78.9102C27.2563 81.6941 35.3584 78.8325 43.2477 71.9363C43.8713 71.3912 44.4971 70.8131 45.124 70.2071C45.9366 70.9896 46.7478 71.7302 47.5548 72.4248C55.1966 79.0007 62.744 81.6561 67.4135 78.9529C72.2363 76.161 73.8036 67.7124 71.7688 57.4334C71.6133 56.6483 71.4325 55.8463 71.2294 55.0301C71.7984 54.8619 72.3569 54.6882 72.9016 54.5077C83.2096 51.0924 89.9163 45.5711 89.9163 39.9243C89.9163 34.5093 83.6406 29.2726 73.9293 25.9295ZM71.6935 50.8616C71.2019 51.0244 70.6974 51.1817 70.1833 51.3342C69.0453 47.7317 67.5095 43.9009 65.6301 39.943C67.4236 36.0794 68.9 32.2976 70.0061 28.7184C70.9259 28.9845 71.8187 29.2653 72.679 29.5615C80.9996 32.4259 86.0751 36.661 86.0751 39.9243C86.0751 43.4002 80.5938 47.9125 71.6935 50.8616ZM68.0005 58.1794C68.9004 62.7246 69.0289 66.8341 68.4328 70.0466C67.8973 72.9333 66.8203 74.8579 65.4887 75.6287C62.655 77.2689 56.5952 75.1368 50.0599 69.513C49.3107 68.8683 48.5561 68.1799 47.7991 67.4514C50.3326 64.6805 52.8648 61.4591 55.3361 57.8815C59.6829 57.4958 63.7896 56.8652 67.5138 56.0043C67.6973 56.7442 67.8602 57.4699 68.0005 58.1794ZM30.6545 75.3452C27.886 76.323 25.681 76.351 24.3481 75.5824C21.5118 73.9465 20.3327 67.6319 21.9411 59.1614C22.1253 58.1914 22.3446 57.1949 22.5973 56.1764C26.2807 56.9909 30.3573 57.577 34.7145 57.9302C37.2025 61.431 39.8078 64.6488 42.4332 67.4663C41.8596 68.0201 41.2882 68.5472 40.72 69.044C37.2314 72.0935 33.7355 74.257 30.6545 75.3452ZM17.6842 50.8403C13.2998 49.3418 9.67902 47.3941 7.19712 45.2688C4.96699 43.3589 3.84104 41.4628 3.84104 39.9243C3.84104 36.6501 8.7224 32.4739 16.8637 29.6355C17.8515 29.291 18.8856 28.9664 19.9587 28.6615C21.0838 32.3216 22.5598 36.1482 24.341 40.0177C22.5368 43.9447 21.0398 47.8323 19.9036 51.5352C19.1386 51.3153 18.3974 51.0839 17.6842 50.8403ZM22.032 21.2455C20.3422 12.6095 21.4644 6.09484 24.2885 4.46009C27.2967 2.71858 33.9485 5.2016 40.9593 11.4267C41.4075 11.8246 41.8574 12.2411 42.3085 12.6719C39.696 15.4771 37.1146 18.6708 34.6487 22.1509C30.4199 22.5428 26.3719 23.1725 22.6501 24.0156C22.4161 23.0744 22.2088 22.1496 22.032 21.2455ZM60.8178 30.8227C59.9281 29.2859 59.0147 27.7854 58.0835 26.3259C60.9524 26.6886 63.7011 27.17 66.2824 27.7592C65.5075 30.2428 64.5415 32.8396 63.4046 35.5018C62.5889 33.9533 61.7263 32.392 60.8178 30.8227ZM45.0011 15.4171C46.7728 17.3366 48.5471 19.4796 50.2923 21.8049C48.5337 21.7218 46.7533 21.6786 44.9582 21.6786C43.18 21.6786 41.4127 21.7208 39.665 21.8025C41.4119 19.4989 43.2016 17.3587 45.0011 15.4171ZM29.083 30.8493C28.1942 32.3904 27.3476 33.9432 26.5448 35.4989C25.4262 32.8461 24.4692 30.2374 23.6875 27.7185C26.253 27.1444 28.9887 26.675 31.8394 26.3192C30.8951 27.7922 29.9741 29.3037 29.083 30.8489V30.8493ZM31.9215 53.8033C28.9762 53.4747 26.1994 53.0295 23.6346 52.4712C24.4287 49.9074 25.4068 47.243 26.5491 44.5331C27.354 46.0876 28.204 47.6411 29.0982 49.1855H29.0983C30.0092 50.759 30.9528 52.3003 31.9215 53.8033ZM45.1073 64.7022C43.2868 62.7379 41.4708 60.5651 39.6973 58.2279C41.419 58.2954 43.1743 58.33 44.9582 58.33C46.7909 58.33 48.6027 58.2887 50.3859 58.2093C48.635 60.5886 46.8671 62.7648 45.1073 64.7022ZM63.4412 44.3949C64.643 47.1342 65.6561 49.7846 66.4605 52.3048C63.8535 52.8995 61.0387 53.3785 58.073 53.7345C59.0064 52.2553 59.9278 50.7291 60.8332 49.1591C61.7492 47.5708 62.6189 45.9801 63.4412 44.3949ZM57.5059 47.2401C56.1004 49.6772 54.6573 52.0037 53.1924 54.1997C50.5242 54.3905 47.7677 54.4888 44.9582 54.4888C42.16 54.4888 39.4382 54.4019 36.8172 54.2318C35.2932 52.0069 33.8189 49.6735 32.4223 47.2611H32.4226C31.0297 44.8552 29.7477 42.429 28.586 40.0164C29.7473 37.5983 31.026 35.1693 32.4109 32.7678L32.4106 32.7683C33.7992 30.3603 35.2606 28.0383 36.7705 25.8274C39.4446 25.6252 42.1867 25.5198 44.958 25.5198H44.9582C47.7419 25.5198 50.4876 25.626 53.1609 25.8299C54.6477 28.0247 56.0992 30.3392 57.4933 32.7475C58.9032 35.1828 60.1983 37.5955 61.3695 39.9619C60.2018 42.3689 58.9096 44.8059 57.5059 47.2401ZM65.4298 4.34581C68.4408 6.08219 69.6118 13.085 67.72 22.2679C67.5993 22.8538 67.4634 23.4506 67.3159 24.0555C63.5854 23.1947 59.5345 22.5542 55.2934 22.1563C52.8227 18.6379 50.2624 15.4393 47.6925 12.6702C48.3834 12.0055 49.0734 11.3717 49.7605 10.7736C56.3987 4.99657 62.603 2.7157 65.4298 4.34581ZM44.9582 31.895C49.3925 31.895 52.9874 35.4898 52.9874 39.9243C52.9874 44.3586 49.3925 47.9535 44.9582 47.9535C40.5238 47.9535 36.9289 44.3586 36.9289 39.9243C36.9289 35.4898 40.5238 31.895 44.9582 31.895Z" fill="#00D8FF"/>
</svg>
