<svg width="48" height="40" viewBox="0 0 48 40" fill="none" xmlns="http://www.w3.org/2000/svg">
<path d="M42.3705 39.81H5.6295C2.5335 39.81 0 37.2765 0 34.1805V5.6295C0 2.5335 2.5335 0 5.6295 0H42.3698C45.4665 0 48 2.5335 48 5.6295V34.1805C48 37.2765 45.4665 39.81 42.3705 39.81Z" fill="#E9EDF1"/>
<path d="M48 8.85975V5.6295C48 2.53275 45.4665 0 42.3705 0H5.6295C2.5335 0 0 2.5335 0 5.6295V8.85975H48Z" fill="black"/>
<path d="M5.4753 5.68814C6.17035 5.68814 6.7338 5.12469 6.7338 4.42964C6.7338 3.73459 6.17035 3.17114 5.4753 3.17114C4.78025 3.17114 4.2168 3.73459 4.2168 4.42964C4.2168 5.12469 4.78025 5.68814 5.4753 5.68814Z" fill="#FC6F58"/>
<path d="M9.06026 5.68814C9.75531 5.68814 10.3188 5.12469 10.3188 4.42964C10.3188 3.73459 9.75531 3.17114 9.06026 3.17114C8.36521 3.17114 7.80176 3.73459 7.80176 4.42964C7.80176 5.12469 8.36521 5.68814 9.06026 5.68814Z" fill="#49C3E8"/>
<path d="M12.6472 5.68814C13.3422 5.68814 13.9057 5.12469 13.9057 4.42964C13.9057 3.73459 13.3422 3.17114 12.6472 3.17114C11.9521 3.17114 11.3887 3.73459 11.3887 4.42964C11.3887 5.12469 11.9521 5.68814 12.6472 5.68814Z" fill="#FFD160"/>
<path d="M43.1074 4.0769H40.2559V4.71665H43.1074V4.0769Z" fill="white"/>
<path d="M42.2694 6.31878L41.7871 5.89878L43.0666 4.42953L41.7871 2.96028L42.2694 2.54028L43.9171 4.42953L42.2694 6.31878Z" fill="white"/>
<path d="M35.5561 6.43277H19.5316C18.4298 6.43277 17.5283 5.53127 17.5283 4.42952C17.5283 3.32777 18.4298 2.42627 19.5316 2.42627H35.5561C36.6578 2.42627 37.5593 3.32777 37.5593 4.42952C37.5593 5.53127 36.6578 6.43277 35.5561 6.43277Z" fill="white"/>
<path d="M19.9361 5.38871L19.4951 3.58496H19.8461L20.0171 4.40396C20.0621 4.62371 20.1049 4.85396 20.1349 5.03246H20.1401C20.1701 4.84271 20.2204 4.62896 20.2714 4.40096L20.4664 3.58496H20.8114L20.9914 4.41521C21.0364 4.62896 21.0739 4.82996 21.1001 5.02496H21.1061C21.1376 4.82621 21.1811 4.62146 21.2284 4.40096L21.4159 3.58496H21.7511L21.2659 5.38871H20.9134L20.7259 4.53971C20.6794 4.33496 20.6486 4.16321 20.6269 3.96746H20.6209C20.5894 4.16021 20.5549 4.33496 20.5009 4.53971L20.2924 5.38871H19.9361V5.38871Z" fill="black"/>
<path d="M22.2857 5.38871L21.8447 3.58496H22.1957L22.3667 4.40396C22.4117 4.62371 22.4545 4.85396 22.4845 5.03246H22.4897C22.5197 4.84271 22.57 4.62896 22.621 4.40096L22.816 3.58496H23.161L23.341 4.41521C23.386 4.62896 23.4235 4.82996 23.4497 5.02496H23.4557C23.4872 4.82621 23.5307 4.62146 23.578 4.40096L23.7655 3.58496H24.1007L23.6155 5.38871H23.263L23.0755 4.53971C23.029 4.33496 22.9982 4.16321 22.9765 3.96746H22.9705C22.939 4.16021 22.9045 4.33496 22.8505 4.53971L22.642 5.38871H22.2857V5.38871Z" fill="black"/>
<path d="M24.6344 5.38871L24.1934 3.58496H24.5444L24.7154 4.40396C24.7604 4.62371 24.8031 4.85396 24.8331 5.03246H24.8384C24.8684 4.84271 24.9186 4.62896 24.9696 4.40096L25.1646 3.58496H25.5096L25.6896 4.41521C25.7346 4.62896 25.7721 4.82996 25.7984 5.02496H25.8044C25.8359 4.82621 25.8794 4.62146 25.9266 4.40096L26.1141 3.58496H26.4494L25.9641 5.38871H25.6116L25.4241 4.53971C25.3776 4.33496 25.3469 4.16321 25.3251 3.96746H25.3191C25.2876 4.16021 25.2531 4.33496 25.1991 4.53971L24.9906 5.38871H24.6344V5.38871Z" fill="black"/>
<path d="M26.4434 5.20564C26.4434 5.08339 26.5296 4.99414 26.6474 4.99414C26.7674 4.99414 26.8514 5.08039 26.8514 5.20564C26.8514 5.32714 26.7704 5.41789 26.6474 5.41789C26.5274 5.41864 26.4434 5.32714 26.4434 5.20564Z" fill="black"/>
<path d="M6.31934 24.1634L18.3666 18.5662V21.2264L9.25559 25.2172V25.2674L18.3666 29.2582V31.9184L6.31934 26.3227V24.1634Z" fill="#32BEA6"/>
<path d="M20.2275 32.9233L25.599 14.7261H28.134L22.7625 32.9233H20.2275Z" fill="#32BEA6"/>
<path d="M41.639 26.3969L29.5918 31.9191V29.2589L38.9038 25.2681V25.2179L29.5918 21.2271V18.5669L41.639 24.0891V26.3969Z" fill="#32BEA6"/>
</svg>
